<?xml version="1.0" encoding="utf-8"?>
<!-- Generator: Adobe Illustrator 15.0.2, SVG Export Plug-In . SVG Version: 6.00 Build 0)  -->
<!DOCTYPE svg PUBLIC "-//W3C//DTD SVG 1.1//EN" "http://www.w3.org/Graphics/SVG/1.1/DTD/svg11.dtd">
<svg version="1.1" id="Calque_1" xmlns="http://www.w3.org/2000/svg" xmlns:xlink="http://www.w3.org/1999/xlink" x="0px" y="0px"
	 width="36px" height="144px" viewBox="0 0 36 144" enable-background="new 0 0 36 144" xml:space="preserve">
<g>
	<rect fill="#607D8B" fill-opacity="0" width="36" height="144"/>
	<polygon fill="#607D8B" points="7.823,12.574 11.901,16.663 2.444,16.663 2.444,19.337 11.901,19.337 7.806,23.452 11.276,23.451 
		16.728,18 11.3,12.572 	"/>
	<polygon fill-opacity="0" points="23.313,12.572 27.392,16.664 17.935,16.663 17.935,19.339 27.392,19.339 23.296,23.453 
		26.767,23.453 32.22,18.001 26.792,12.572 	"/>
	<polygon fill-opacity="0" points="18.149,12.572 22.228,16.664 12.771,16.665 12.771,19.338 22.228,19.338 18.134,23.452 
		21.604,23.453 27.056,18.001 21.627,12.572 	"/>
	<polygon fill-opacity="0" points="12.986,12.572 17.063,16.664 7.607,16.665 7.606,19.337 17.063,19.338 12.968,23.452 
		16.438,23.452 21.892,18 16.464,12.572 	"/>
	<polygon fill-opacity="0" points="7.823,48.572 11.901,52.663 2.443,52.662 2.443,55.336 11.9,55.336 7.806,59.45 11.275,59.45 
		16.728,53.999 11.3,48.572 	"/>
	<polygon fill-opacity="0" points="23.313,48.572 27.392,52.662 17.935,52.662 17.935,55.338 27.392,55.338 23.296,59.452 
		26.767,59.452 32.22,53.999 26.792,48.572 	"/>
	<polygon fill-opacity="0" points="18.149,48.572 22.228,52.664 12.771,52.663 12.771,55.337 22.228,55.337 18.132,59.452 
		21.604,59.452 27.056,54 21.627,48.572 	"/>
	<polygon fill="#607D8B" points="12.986,48.572 17.063,52.663 7.607,52.662 7.604,55.336 17.063,55.337 12.968,59.451 16.44,59.452 
		21.892,54 16.464,48.572 	"/>
	<polygon fill-opacity="0" points="7.825,84.572 11.903,88.663 2.446,88.663 2.446,91.337 11.903,91.337 7.808,95.45 11.278,95.45 
		16.729,89.999 11.302,84.572 	"/>
	<polygon fill-opacity="0" points="23.315,84.572 27.394,88.663 17.937,88.662 17.937,91.337 27.394,91.338 23.298,95.452 
		26.769,95.452 32.222,90 26.794,84.572 	"/>
	<polygon fill="#607D8B" points="18.151,84.572 22.229,88.663 12.771,88.663 12.772,91.337 22.229,91.337 18.134,95.451 
		21.604,95.451 27.056,90 21.63,84.572 	"/>
	<polygon fill-opacity="0" points="12.988,84.572 17.065,88.663 7.608,88.663 7.608,91.337 17.065,91.337 12.97,95.451 
		16.442,95.452 21.894,90 16.466,84.572 	"/>
	<polygon fill-opacity="0" points="7.824,120.57 11.902,124.66 2.444,124.66 2.444,127.334 11.902,127.334 7.806,131.447 
		11.276,131.447 16.728,125.996 11.302,120.568 	"/>
	<polygon fill="#607D8B" points="23.313,120.57 27.392,124.66 17.935,124.659 17.935,127.335 27.394,127.335 23.298,131.449 
		26.769,131.449 32.222,125.997 26.793,120.57 	"/>
	<polygon fill-opacity="0" points="18.15,120.57 22.229,124.661 12.771,124.66 12.771,127.335 22.228,127.334 18.134,131.449 
		21.604,131.449 27.056,125.997 21.63,120.568 	"/>
	<polygon fill-opacity="0" points="12.987,120.57 17.063,124.66 7.608,124.66 7.607,127.334 17.063,127.334 12.97,131.447 
		16.441,131.449 21.892,125.997 16.466,120.568 	"/>
</g>
</svg>
