<?xml version="1.0" encoding="utf-8"?>
<!-- Generator: Adobe Illustrator 15.0.2, SVG Export Plug-In . SVG Version: 6.00 Build 0)  -->
<!DOCTYPE svg PUBLIC "-//W3C//DTD SVG 1.1//EN" "http://www.w3.org/Graphics/SVG/1.1/DTD/svg11.dtd">
<svg version="1.1" id="Calque_1" xmlns="http://www.w3.org/2000/svg" xmlns:xlink="http://www.w3.org/1999/xlink" x="0px" y="0px"
	 width="36px" height="828px" viewBox="0 0 36 828" enable-background="new 0 0 36 828" xml:space="preserve">
<g>
	<rect y="0" fill-opacity="0" width="36" height="828"/>
	<path fill="#F06292" d="M25.082,795.706c-3.049,0-5.654,2.177-7.084,3.679c-1.436-1.502-4.033-3.679-7.078-3.679
		c-5.25,0-8.92,3.658-8.92,8.902c0,5.775,4.551,9.504,8.957,13.119c2.086,1.697,5.887,5.418,5.887,5.418l1.11,1.146h0.089
		l1.11-1.146c0,0,3.805-3.719,5.888-5.418c4.4-3.613,8.959-7.34,8.959-13.119C34,799.365,30.335,795.706,25.082,795.706z"/>
	<path fill="#F06292" d="M24.731,760.423c-2.898,0-5.372,2.065-6.73,3.493c-1.358-1.428-3.827-3.493-6.721-3.493
		c-4.992,0-8.478,3.479-8.478,8.461c0,5.479,4.326,9.028,8.513,12.453c1.973,1.618,5.592,5.149,5.592,5.149l1.051,1.09h0.08
		l1.058-1.09c0,0,3.613-3.533,5.594-5.147c4.183-3.427,8.507-6.974,8.507-12.455C33.196,763.898,29.719,760.423,24.731,760.423z"/>
	<path fill="#F06292" d="M24.37,725.139c-2.744,0-5.091,1.951-6.377,3.299c-1.291-1.35-3.633-3.299-6.369-3.299
		c-4.724,0-8.022,3.293-8.022,8.006c0,5.195,4.099,8.559,8.063,11.807c1.868,1.533,5.29,4.877,5.29,4.877l1.009,1.033h0.069l1-1.033
		c0,0,3.431-3.344,5.297-4.877c3.972-3.248,8.07-6.608,8.07-11.807C32.398,728.43,29.092,725.139,24.37,725.139z"/>
	<path fill="#F06292" d="M24.268,689.851c-2.586,0-4.803,1.846-6.021,3.123c-1.217-1.277-3.425-3.123-6.018-3.123
		c-4.465,0-7.577,3.113-7.577,7.563c0,4.908,3.866,8.087,7.612,11.152c1.766,1.443,5,4.615,5,4.615l0.949,0.969h0.064l0.949-0.969
		c0,0,3.229-3.158,5.002-4.615c3.744-3.065,7.617-6.229,7.617-11.152C31.846,692.966,28.725,689.851,24.268,689.851z"/>
	<path fill="#F06292" d="M23.662,654.566c-2.431,0-4.518,1.742-5.662,2.938c-1.143-1.195-3.229-2.938-5.665-2.938
		c-4.194,0-7.13,2.93-7.13,7.119c0,4.623,3.643,7.6,7.168,10.498c1.661,1.354,4.704,4.328,4.704,4.328l0.894,0.924h0.063
		l0.887-0.924c0,0,3.041-2.972,4.709-4.328c3.524-2.896,7.165-5.873,7.165-10.498C30.805,657.494,27.867,654.566,23.662,654.566z"/>
	<path fill="#F06292" d="M23.307,619.281c-2.28,0-4.233,1.631-5.31,2.756c-1.073-1.12-3.026-2.756-5.31-2.756
		c-3.939,0-6.688,2.748-6.688,6.672c0,4.339,3.417,7.125,6.719,9.839c1.56,1.274,4.408,4.063,4.408,4.063l0.838,0.865h0.063
		l0.831-0.865c0,0,2.854-2.787,4.42-4.063c3.306-2.714,6.719-5.498,6.719-9.839C29.998,622.03,27.244,619.281,23.307,619.281z"/>
	<path fill="#F06292" d="M22.956,583.991c-2.13,0-3.954,1.527-4.955,2.58c-0.999-1.055-2.825-2.58-4.954-2.58
		c-3.675,0-6.242,2.563-6.242,6.24c0,4.035,3.192,6.637,6.274,9.182c1.454,1.177,4.115,3.783,4.115,3.783l0.778,0.812h0.059
		l0.771-0.812c0,0,2.664-2.606,4.125-3.78c3.082-2.544,6.268-5.148,6.268-9.185C29.195,586.555,26.629,583.991,22.956,583.991z"/>
	<path fill="#F06292" d="M22.426,9.061c-1.896,0-3.533,1.369-4.428,2.301c-0.893-0.933-2.527-2.301-4.431-2.301
		c-3.282,0-5.57,2.29-5.57,5.571c0,3.614,2.849,5.938,5.601,8.206c1.297,1.062,3.674,3.382,3.674,3.382l0.699,0.719h0.051
		l0.695-0.719c0,0,2.377-2.322,3.686-3.382c2.757-2.263,5.602-4.592,5.602-8.206C28.004,11.351,25.71,9.061,22.426,9.061z"/>
	<path fill="#F06292" d="M22.426,45.058c-1.896,0-3.533,1.369-4.428,2.305c-0.893-0.936-2.527-2.305-4.431-2.305
		c-3.282,0-5.57,2.291-5.57,5.572c0,3.613,2.849,5.938,5.601,8.206c1.297,1.063,3.674,3.386,3.674,3.386l0.699,0.72h0.051
		l0.695-0.72c0,0,2.377-2.326,3.686-3.386c2.757-2.264,5.602-4.592,5.602-8.206C28.004,47.349,25.71,45.058,22.426,45.058z"/>
	<path fill="#F06292" d="M22.426,81.06c-1.896,0-3.533,1.365-4.428,2.301c-0.893-0.936-2.527-2.301-4.431-2.301
		c-3.282,0-5.57,2.287-5.57,5.568c0,3.617,2.849,5.941,5.601,8.209c1.297,1.063,3.674,3.383,3.674,3.383l0.699,0.719h0.051
		l0.695-0.719c0,0,2.377-2.326,3.686-3.383c2.757-2.265,5.602-4.592,5.602-8.209C28.004,83.347,25.71,81.06,22.426,81.06z"/>
	<path fill="#F06292" d="M22.426,117.058c-1.896,0-3.533,1.369-4.428,2.308c-0.893-0.938-2.527-2.308-4.431-2.308
		c-3.282,0-5.57,2.291-5.57,5.572c0,3.613,2.849,5.938,5.601,8.205c1.297,1.063,3.674,3.387,3.674,3.387l0.699,0.721h0.051
		l0.695-0.721c0,0,2.377-2.326,3.686-3.387c2.757-2.263,5.602-4.592,5.602-8.205C28.004,119.349,25.71,117.058,22.426,117.058z"/>
	<path fill="#F06292" d="M22.426,153.061c-1.896,0-3.533,1.365-4.428,2.301c-0.893-0.936-2.527-2.301-4.431-2.301
		c-3.282,0-5.57,2.285-5.57,5.566c0,3.616,2.849,5.938,5.601,8.207c1.297,1.063,3.674,3.385,3.674,3.385l0.699,0.721h0.051
		l0.695-0.721c0,0,2.377-2.324,3.686-3.385c2.757-2.261,5.602-4.591,5.602-8.207C28.004,155.346,25.71,153.061,22.426,153.061z"/>
	<path fill="#F06292" d="M22.426,189.061c-1.896,0-3.533,1.369-4.428,2.301c-0.893-0.932-2.527-2.301-4.431-2.301
		c-3.282,0-5.57,2.291-5.57,5.572c0,3.612,2.849,5.938,5.601,8.205c1.297,1.063,3.674,3.383,3.674,3.383l0.699,0.719h0.051
		l0.695-0.719c0,0,2.377-2.322,3.686-3.383c2.757-2.263,5.602-4.593,5.602-8.205C28.004,191.352,25.71,189.061,22.426,189.061z"/>
	<path fill="#F06292" d="M22.426,225.058c-1.896,0-3.533,1.371-4.428,2.307c-0.893-0.936-2.527-2.307-4.431-2.307
		c-3.282,0-5.57,2.291-5.57,5.572c0,3.612,2.849,5.938,5.601,8.207c1.297,1.063,3.674,3.385,3.674,3.385l0.699,0.721h0.051
		l0.695-0.721c0,0,2.377-2.324,3.686-3.385c2.757-2.265,5.602-4.595,5.602-8.207C28.004,227.349,25.71,225.058,22.426,225.058z"/>
	<path fill="#F06292" d="M22.426,261.061c-1.896,0-3.533,1.365-4.428,2.301c-0.893-0.936-2.527-2.301-4.431-2.301
		c-3.282,0-5.57,2.287-5.57,5.568c0,3.616,2.849,5.942,5.601,8.209c1.297,1.063,3.674,3.383,3.674,3.383l0.699,0.719h0.051
		l0.695-0.719c0,0,2.377-2.326,3.686-3.383c2.757-2.265,5.602-4.593,5.602-8.209C28.004,263.348,25.71,261.061,22.426,261.061z"/>
	<path fill="#F06292" d="M22.426,297.058c-1.896,0-3.533,1.371-4.428,2.307c-0.893-0.936-2.527-2.307-4.431-2.307
		c-3.282,0-5.57,2.291-5.57,5.572c0,3.612,2.849,5.938,5.601,8.207c1.297,1.061,3.674,3.385,3.674,3.385l0.699,0.721h0.051
		l0.695-0.721c0,0,2.377-2.326,3.686-3.385c2.757-2.265,5.602-4.595,5.602-8.207C28.004,299.349,25.71,297.058,22.426,297.058z"/>
	<path fill="#F06292" d="M22.426,333.058c-1.896,0-3.533,1.371-4.428,2.307c-0.893-0.936-2.527-2.307-4.431-2.307
		c-3.282,0-5.57,2.291-5.57,5.572c0,3.612,2.849,5.938,5.601,8.207c1.297,1.061,3.674,3.381,3.674,3.381l0.699,0.725h0.051
		l0.695-0.725c0,0,2.377-2.322,3.686-3.381c2.757-2.265,5.602-4.595,5.602-8.207C28.004,335.349,25.71,333.058,22.426,333.058z"/>
	<path fill="#F06292" d="M22.426,369.061c-1.896,0-3.533,1.365-4.428,2.301c-0.893-0.936-2.527-2.301-4.431-2.301
		c-3.282,0-5.57,2.287-5.57,5.568c0,3.612,2.849,5.938,5.601,8.205c1.297,1.063,3.674,3.387,3.674,3.387l0.699,0.719h0.051
		l0.695-0.719c0,0,2.377-2.326,3.686-3.387c2.757-2.265,5.602-4.593,5.602-8.205C28.004,371.348,25.71,369.061,22.426,369.061z"/>
	<path fill="#F06292" d="M22.426,405.061c-1.896,0-3.533,1.365-4.428,2.301c-0.893-0.936-2.527-2.301-4.431-2.301
		c-3.282,0-5.57,2.287-5.57,5.568c0,3.612,2.849,5.938,5.601,8.205c1.297,1.063,3.674,3.387,3.674,3.387l0.699,0.719h0.051
		l0.695-0.719c0,0,2.377-2.326,3.686-3.387c2.757-2.265,5.602-4.593,5.602-8.205C28.004,407.348,25.71,405.061,22.426,405.061z"/>
	<path fill="#F06292" d="M22.426,441.059c-1.896,0-3.533,1.365-4.428,2.301c-0.893-0.936-2.527-2.301-4.431-2.301
		c-3.282,0-5.57,2.287-5.57,5.568c0,3.616,2.849,5.942,5.601,8.209c1.297,1.061,3.674,3.385,3.674,3.385l0.699,0.721h0.051
		l0.695-0.721c0,0,2.377-2.328,3.686-3.385c2.757-2.265,5.602-4.593,5.602-8.209C28.004,443.346,25.71,441.059,22.426,441.059z"/>
	<path fill="#F06292" d="M22.426,477.061c-1.896,0-3.533,1.361-4.428,2.297c-0.893-0.936-2.527-2.297-4.431-2.297
		c-3.282,0-5.57,2.287-5.57,5.566c0,3.618,2.849,5.938,5.601,8.211c1.297,1.063,3.674,3.383,3.674,3.383l0.699,0.719h0.051
		l0.695-0.719c0,0,2.377-2.332,3.686-3.383c2.757-2.269,5.602-4.593,5.602-8.211C28.004,479.348,25.71,477.061,22.426,477.061z"/>
	<path fill="#F06292" d="M22.426,513.061c-1.896,0-3.533,1.369-4.428,2.305c-0.893-0.936-2.527-2.305-4.431-2.305
		c-3.282,0-5.57,2.287-5.57,5.568c0,3.616,2.849,5.938,5.601,8.209c1.297,1.063,3.674,3.383,3.674,3.383l0.699,0.719h0.051
		l0.695-0.719c0,0,2.377-2.322,3.686-3.383c2.757-2.269,5.602-4.593,5.602-8.209C28.004,515.348,25.71,513.061,22.426,513.061z"/>
	<path fill="#F06292" d="M22.426,549.06c-1.896,0-3.533,1.371-4.428,2.307c-0.893-0.936-2.527-2.307-4.431-2.307
		c-3.282,0-5.57,2.287-5.57,5.568c0,3.616,2.849,5.938,5.601,8.211c1.297,1.063,3.674,3.381,3.674,3.381l0.699,0.721h0.051
		l0.695-0.721c0,0,2.377-2.32,3.686-3.381c2.757-2.261,5.602-4.595,5.602-8.211C28.004,551.347,25.71,549.06,22.426,549.06z"/>
</g>
</svg>
